<svg width="858" height="223" viewBox="0 0 858 223" fill="none" xmlns="http://www.w3.org/2000/svg">
<rect width="858" height="156" fill="url(#paint0_linear_11_5)"/>
<path d="M70 108C43.7595 99.2886 0.5 121.5 0.5 121.5V223H857.5V108C857.5 108 791.687 132.442 747.5 137.5C684.34 144.73 645.586 142.264 585.5 121.5C565.58 114.616 556.95 97.7057 536 100C526.547 101.035 522.258 105.827 513 108C492.66 112.774 480.33 106.376 459.5 108C403.021 112.403 377.144 140.666 320.5 141.5C249.184 142.55 215.631 66.8463 148 89.5C124.756 97.2857 118.5 121.5 94 121.5C83.2464 121.5 80.2059 111.388 70 108Z" fill="white"/>
<defs>
<linearGradient id="paint0_linear_11_5" x1="429" y1="0" x2="429" y2="156" gradientUnits="userSpaceOnUse">
<stop offset="0.173611" stop-color="white"/>
<stop offset="1" stop-color="#95CCFF"/>
</linearGradient>
</defs>
</svg>
